<?xml version="1.0" encoding="UTF-8" standalone="no"?>
<svg
   height="24px"
   viewBox="0 -960 960 960"
   width="24px"
   fill="#1f1f1f"
   version="1.1"
   id="svg1"
   sodipodi:docname="eta-shutdown-poweroff.svg"
   inkscape:version="1.4 (e7c3feb100, 2024-10-09)"
   xmlns:inkscape="http://www.inkscape.org/namespaces/inkscape"
   xmlns:sodipodi="http://sodipodi.sourceforge.net/DTD/sodipodi-0.dtd"
   xmlns="http://www.w3.org/2000/svg"
   xmlns:svg="http://www.w3.org/2000/svg">
  <defs
     id="defs1" />
  <sodipodi:namedview
     id="namedview1"
     pagecolor="#ffffff"
     bordercolor="#000000"
     borderopacity="0.25"
     inkscape:showpageshadow="2"
     inkscape:pageopacity="0.0"
     inkscape:pagecheckerboard="0"
     inkscape:deskcolor="#d1d1d1"
     inkscape:zoom="11.785113"
     inkscape:cx="-4.0729351"
     inkscape:cy="14.000714"
     inkscape:window-width="1920"
     inkscape:window-height="1008"
     inkscape:window-x="0"
     inkscape:window-y="0"
     inkscape:window-maximized="1"
     inkscape:current-layer="svg1" />
  <path
     d="M480-80q-83 0-156-31.5T197-197q-54-54-85.5-127T80-480q0-84 31.5-156.5T197-763l56 56q-44 44-68.5 102T160-480q0 134 93 227t227 93q134 0 227-93t93-227q0-67-24.5-125T707-707l56-56q54 54 85.5 126.5T880-480q0 83-31.5 156T763-197q-54 54-127 85.5T480-80Zm-40-360v-440h80v440h-80Z"
     id="path1"
     style="fill:#ff0000" />
</svg>
